<svg width="40" height="40" viewBox="0 0 40 40" fill="none" xmlns="http://www.w3.org/2000/svg">
<path d="M20 0C8.9646 0 0 8.96461 0 20C0 31.0354 8.9646 40 20 40C31.0354 40 40 31.0354 40 20C40 8.96461 31.0354 0 20 0ZM20 1.73913C30.0955 1.73913 38.2609 9.9045 38.2609 20C38.2609 30.0955 30.0955 38.2609 20 38.2609C9.90449 38.2609 1.73913 30.0955 1.73913 20C1.73913 9.9045 9.90449 1.73913 20 1.73913ZM27.9025 10.4654C27.3077 10.4654 26.6394 10.6031 25.8577 10.8849C24.6438 11.3222 10.3659 17.3845 8.74151 18.074C7.81281 18.4688 6.08356 19.2032 6.08356 20.9545C6.08356 22.1154 6.76379 22.9457 8.10292 23.4239C8.82292 23.6804 10.533 24.1988 11.5251 24.4718C11.946 24.5875 12.3933 24.6467 12.8533 24.6467C13.7533 24.6467 14.659 24.4225 15.3685 24.0268C15.3625 24.1729 15.3664 24.3206 15.3838 24.4684C15.4908 25.3815 16.0538 26.2402 16.8886 26.7663C17.4347 27.1107 21.8951 30.0993 22.5611 30.574C23.4968 31.2427 24.5311 31.5965 25.5503 31.5965C27.4981 31.5965 28.1516 29.5853 28.4664 28.6192C28.9229 27.2166 30.6324 15.8106 30.8254 13.7993C30.9567 12.421 30.3823 11.286 29.2884 10.7626C28.8788 10.5652 28.4112 10.4654 27.9025 10.4654ZM27.9025 12.2045C28.1416 12.2045 28.3551 12.244 28.536 12.3319C28.9473 12.5293 29.1565 12.9693 29.0931 13.6345C28.8826 15.8284 27.1773 26.9643 26.8139 28.0808C26.5026 29.0356 26.1746 29.8573 25.5503 29.8573C24.9259 29.8573 24.2438 29.6385 23.5717 29.1576C22.8995 28.6776 18.4359 25.6843 17.8159 25.2938C17.2724 24.9512 16.6972 24.0971 17.5068 23.2711C18.1737 22.5911 23.2329 17.6808 23.6651 17.2486C23.9868 16.926 23.8364 16.537 23.5207 16.537C23.412 16.537 23.2819 16.5828 23.1471 16.6933C22.6184 17.1254 15.2476 22.0576 14.6094 22.4541C14.1868 22.7168 13.5324 22.9059 12.8533 22.9059C12.5637 22.9059 12.2705 22.8712 11.9888 22.7938C11.0079 22.5234 9.34799 22.0198 8.68886 21.785C8.05495 21.5589 7.82439 21.3423 7.82439 20.9545C7.82439 20.4032 8.60256 20.0226 9.42255 19.6739C10.2886 19.3061 25.2748 12.9421 26.447 12.5204C26.9896 12.3239 27.486 12.2045 27.9025 12.2045Z" fill="black"/>
</svg>
