<svg width="40" height="40" viewBox="0 0 40 40" fill="none" xmlns="http://www.w3.org/2000/svg">
<path d="M20 0C8.9646 0 0 8.9646 0 20C0 31.0354 8.9646 40 20 40C31.0354 40 40 31.0354 40 20C40 8.9646 31.0354 0 20 0ZM20 1.73913C30.0955 1.73913 38.2609 9.9045 38.2609 20C38.2609 30.0955 30.0955 38.2609 20 38.2609C9.9045 38.2609 1.73913 30.0955 1.73913 20C1.73913 9.9045 9.9045 1.73913 20 1.73913ZM11.306 13.913L7.79721 13.9147C7.79721 13.9147 7.59643 13.9034 7.35394 13.9351C7.11145 13.9668 6.75321 13.9815 6.38587 14.3971L6.38417 14.3988L6.38247 14.4005C6.05572 14.7741 6.06819 15.2091 6.10904 15.4484C6.14973 15.6868 6.24151 15.8662 6.24151 15.8662V15.8679C6.27524 15.9506 8.82294 22.193 12.0346 25.5469C14.3001 27.9142 16.723 28.6957 18.8808 28.6957H20C20.3682 28.6957 20.6971 28.6789 21.0615 28.4901C21.4259 28.3014 21.7391 27.7805 21.7391 27.376C21.7391 26.9402 21.7498 26.5177 21.8054 26.2823C21.8572 26.0624 21.8372 26.1163 21.858 26.1158C21.8789 26.1204 21.9168 26.1291 21.9888 26.1617C22.1439 26.2318 22.3836 26.3884 22.6495 26.5948C23.1803 27.0069 23.8091 27.6048 24.5143 28.0673C25.5242 28.7366 26.6202 28.6957 26.6202 28.6957H30.2344L30.2734 28.6923C30.2734 28.6923 30.828 28.6796 31.3978 28.3305C31.6826 28.1559 32.0212 27.8357 32.1348 27.3556C32.2485 26.8756 32.1034 26.372 31.824 25.929C31.722 25.7665 31.2266 25.0486 29.2493 23.2931C28.7385 22.8401 28.3901 22.5194 28.2524 22.3488C28.2035 22.2883 28.1994 22.2941 28.1895 22.2911C28.2011 22.2614 28.3153 22.0208 28.6209 21.6236C28.9394 21.2097 29.4235 20.633 30.0459 19.8404C30.8391 18.8298 31.3957 17.858 31.7459 17.038C31.921 16.6281 32.0452 16.256 32.1196 15.9188C32.1939 15.5816 32.2533 15.3013 32.1433 14.9015C32.0613 14.6039 31.8386 14.3374 31.6202 14.1967C31.4019 14.056 31.1983 14.003 31.0156 13.9691C30.6502 13.9013 30.3278 13.913 30.0272 13.913C29.3978 13.913 26.5998 13.9351 26.3689 13.9351C26.0978 13.9351 25.6654 14.048 25.4654 14.1627C24.9686 14.4472 24.8132 14.837 24.8132 14.837L24.7656 14.9202L24.7385 15.0136C24.7385 15.0136 24.1013 17.0746 23.446 18.1369H23.4443C22.6737 19.3883 22.0989 19.8847 21.8461 20.0255C21.8193 20.0404 21.8342 20.0325 21.8156 20.0425C21.7958 19.9849 21.7708 19.9056 21.7544 19.7588C21.7174 19.4282 21.7391 18.9626 21.7391 18.5122C21.7391 17.2649 21.8328 16.4871 21.7289 15.7507C21.677 15.3825 21.5448 14.9724 21.2432 14.6569C20.9416 14.3415 20.5521 14.1862 20.163 14.0965H20.1613C19.7559 14.0031 19.319 13.9229 18.2694 13.913C16.932 13.9006 16.061 13.942 15.287 14.2867L15.2785 14.2918L15.2717 14.2952C14.9659 14.4388 14.7249 14.6035 14.5126 14.8234C14.4064 14.9333 14.2805 15.0134 14.1933 15.3635C14.1497 15.5385 14.1449 15.8696 14.3427 16.1379C14.5406 16.4062 14.8178 16.4871 14.9813 16.5082C14.9512 16.5042 15.1099 16.5392 15.2327 16.5999C15.3554 16.6606 15.462 16.7479 15.4891 16.7833V16.785C15.4778 16.7702 15.5957 17.0632 15.6267 17.3302C15.6577 17.5972 15.6522 17.8125 15.6522 17.8125L15.6505 17.8651L15.6556 17.9178C15.6556 17.9178 15.709 18.5086 15.681 19.1185C15.6671 19.4235 15.6285 19.7304 15.5774 19.9185C15.5747 19.9284 15.5735 19.9249 15.5707 19.9338C15.3529 19.7817 14.8509 19.2519 14.1593 18.1097C13.52 17.0531 12.9212 15.1529 12.9212 15.1529L12.9076 15.1104L12.8923 15.0696C12.8923 15.0696 12.7807 14.6451 12.2877 14.2986C11.8256 13.9733 11.3859 13.9283 11.3859 13.9283L11.306 13.913ZM11.1039 15.6522C11.1537 15.6704 11.2577 15.7078 11.2772 15.7167L11.2568 15.6556L11.284 15.7184L11.2874 15.7201V15.7218H11.2891C11.2454 15.6912 11.2824 15.7216 11.2874 15.7286C11.3114 15.8105 11.8423 17.6395 12.6715 19.0098C13.4269 20.2573 13.985 20.9562 14.5941 21.374C15.2026 21.7913 16.0209 21.7483 16.4368 21.5319C16.9927 21.2433 17.1481 20.7688 17.2554 20.3736C17.3628 19.9785 17.4011 19.5775 17.4185 19.1984C17.4516 18.4749 17.395 17.8831 17.3896 17.8244C17.3905 17.7917 17.3982 17.509 17.3539 17.1281C17.3093 16.7442 17.2293 16.2671 16.8886 15.788C17.2702 15.7313 17.4821 15.645 18.2524 15.6522C19.2347 15.6614 19.3841 15.7024 19.7707 15.7914C19.9813 15.84 20.0046 15.8802 19.9847 15.8594C19.9648 15.8385 19.983 15.8246 20.0068 15.9935C20.0545 16.3314 20 17.1978 20 18.5122C20 18.8827 19.9642 19.4053 20.0255 19.9524C20.0867 20.4993 20.2576 21.199 20.9188 21.6084C21.2956 21.8415 22.0153 21.9217 22.6936 21.5438C23.372 21.1659 24.068 20.441 24.9253 19.0489C25.772 17.6764 26.2784 15.8718 26.3332 15.681C26.3332 15.681 26.3429 15.6748 26.3485 15.6709C26.3639 15.6716 26.3443 15.6743 26.3689 15.6743C26.691 15.6743 29.4392 15.6522 30.0272 15.6522C30.1889 15.6522 30.26 15.6609 30.3804 15.6658C30.3317 15.8535 30.2663 16.0721 30.1461 16.3536C29.8635 17.0152 29.3785 17.8732 28.677 18.767C28.0724 19.537 27.6027 20.0954 27.2435 20.5622C26.8844 21.0289 26.6022 21.397 26.4844 21.9293C26.3665 22.4617 26.5914 23.062 26.8988 23.4426C27.2062 23.8232 27.5866 24.1437 28.0944 24.5941C30.0075 26.2925 30.3214 26.8067 30.3516 26.8546V26.8563C30.3839 26.9075 30.3629 26.856 30.3753 26.8818C30.2669 26.9156 30.1377 26.9539 30.1257 26.9565H26.6067H26.6016C26.6016 26.9565 25.9543 26.9353 25.4738 26.6168L25.4721 26.6151H25.4704C24.9621 26.2822 24.3478 25.7113 23.716 25.2208C23.4001 24.9755 23.0785 24.7458 22.7055 24.5771C22.3325 24.4085 21.8597 24.2889 21.3621 24.4378C20.6419 24.6534 20.2422 25.3388 20.1138 25.8832C20.0216 26.2739 20.0353 26.6137 20.0323 26.9548C20.0075 26.9561 20.0289 26.9565 20 26.9565H18.8808C17.1134 26.9565 15.2747 26.417 13.2914 24.3444C10.713 21.6519 8.41258 16.4449 8.06726 15.6539L11.1039 15.6522ZM26.2721 15.659C26.2563 15.6625 26.3014 15.6659 26.3383 15.6692C26.3333 15.6719 26.3387 15.6668 26.3315 15.6709C26.3308 15.6563 26.2933 15.6542 26.2721 15.659Z" fill="#050505"/>
</svg>
